<?xml version="1.0" encoding="UTF-8" standalone="no"?><!DOCTYPE svg PUBLIC "-//W3C//DTD SVG 1.1//EN" "http://www.w3.org/Graphics/SVG/1.1/DTD/svg11.dtd"><svg width="100%" height="100%" viewBox="0 0 400 400" version="1.1" xmlns="http://www.w3.org/2000/svg" xmlns:xlink="http://www.w3.org/1999/xlink" xml:space="preserve" xmlns:serif="http://www.serif.com/" style="fill-rule:evenodd;clip-rule:evenodd;stroke-linejoin:round;stroke-miterlimit:2;"><g id="afterbegin"><circle cx="132.729" cy="85.523" r="6.44"/><circle cx="105.257" cy="106.043" r="6.44"/><circle cx="84.737" cy="133.183" r="6.44"/><circle cx="72.491" cy="163.964" r="6.44"/><circle cx="68.188" cy="199.048" r="6.44"/><circle cx="73.153" cy="232.145" r="6.44"/><circle cx="87.054" cy="264.25" r="6.44"/><circle cx="107.574" cy="289.735" r="6.44"/><circle cx="134.383" cy="310.256" r="6.44"/><circle cx="165.826" cy="322.833" r="6.44"/><circle cx="199.586" cy="328.129" r="6.44"/><circle cx="233.345" cy="322.502" r="6.44"/><circle cx="265.119" cy="309.594" r="6.44"/><circle cx="291.266" cy="288.742" r="6.44"/><circle cx="312.78" cy="261.602" r="6.44"/><circle cx="324.695" cy="229.829" r="6.44"/><circle cx="328.336" cy="196.4" r="6.44"/><circle cx="324.695" cy="161.978" r="6.44"/><circle cx="310.794" cy="130.866" r="6.44"/><circle cx="290.273" cy="103.726" r="6.44"/><circle cx="263.133" cy="83.868" r="6.44"/><circle cx="232.353" cy="70.629" r="6.44"/><circle cx="197.6" cy="66.657" r="6.44"/><circle cx="163.84" cy="71.622" r="6.44"/></g></svg>