<?xml version="1.0" encoding="UTF-8" standalone="no"?><!DOCTYPE svg PUBLIC "-//W3C//DTD SVG 1.1//EN" "http://www.w3.org/Graphics/SVG/1.1/DTD/svg11.dtd"><svg width="100%" height="100%" viewBox="0 0 400 400" version="1.1" xmlns="http://www.w3.org/2000/svg" xmlns:xlink="http://www.w3.org/1999/xlink" xml:space="preserve" xmlns:serif="http://www.serif.com/" style="fill-rule:evenodd;clip-rule:evenodd;stroke-linejoin:round;stroke-miterlimit:2;"><g id="afterend"><circle cx="174.817" cy="10.388" r="9.888"/><circle cx="129.275" cy="22.038" r="9.888"/><circle cx="85.586" cy="47.192" r="9.888"/><circle cx="49.575" cy="81.084" r="9.888"/><circle cx="23.097" cy="123.979" r="9.888"/><circle cx="11.447" cy="170.316" r="9.888"/><circle cx="10.917" cy="221.154" r="9.888"/><circle cx="22.832" cy="268.549" r="9.888"/><circle cx="47.722" cy="311.444" r="9.888"/><circle cx="82.143" cy="346.925" r="9.888"/><circle cx="125.038" cy="371.814" r="9.888"/><circle cx="172.699" cy="385.053" r="9.888"/><circle cx="221.418" cy="385.583" r="9.888"/><circle cx="268.814" cy="373.403" r="9.888"/><circle cx="312.238" cy="350.102" r="9.888"/><circle cx="347.454" cy="314.357" r="9.888"/><circle cx="372.079" cy="272.521" r="9.888"/><circle cx="385.583" cy="225.39" r="9.888"/><circle cx="386.112" cy="175.082" r="9.888"/><circle cx="374.462" cy="126.891" r="9.888"/><circle cx="349.573" cy="84.791" r="9.888"/><circle cx="314.886" cy="47.987" r="9.888"/><circle cx="273.316" cy="24.156" r="9.888"/><circle cx="225.125" cy="10.388" r="9.888"/></g></svg>