<?xml version="1.0" encoding="UTF-8" standalone="no"?><!DOCTYPE svg PUBLIC "-//W3C//DTD SVG 1.1//EN" "http://www.w3.org/Graphics/SVG/1.1/DTD/svg11.dtd"><svg width="100%" height="100%" viewBox="0 0 400 400" version="1.1" xmlns="http://www.w3.org/2000/svg" xmlns:xlink="http://www.w3.org/1999/xlink" xml:space="preserve" xmlns:serif="http://www.serif.com/" style="fill-rule:evenodd;clip-rule:evenodd;stroke-linejoin:round;stroke-miterlimit:2;"><g id="beforeend"><circle cx="155.253" cy="36.148" r="8.587"/><circle cx="114.742" cy="54.683" r="8.587"/><circle cx="81.644" cy="81.161" r="8.587"/><circle cx="54.901" cy="114.788" r="8.587"/><circle cx="39.279" cy="154.77" r="8.587"/><circle cx="34.513" cy="196.606" r="8.587"/><circle cx="39.809" cy="240.295" r="8.587"/><circle cx="56.225" cy="279.482" r="8.587"/><circle cx="82.174" cy="313.374" r="8.587"/><circle cx="117.655" cy="339.323" r="8.587"/><circle cx="157.107" cy="355.739" r="8.587"/><circle cx="198.413" cy="360.241" r="8.587"/><circle cx="241.572" cy="354.68" r="8.587"/><circle cx="281.554" cy="339.058" r="8.587"/><circle cx="316.241" cy="311.786" r="8.587"/><circle cx="341.66" cy="276.834" r="8.587"/><circle cx="357.282" cy="237.382" r="8.587"/><circle cx="363.107" cy="195.282" r="8.587"/><circle cx="356.487" cy="152.387" r="8.587"/><circle cx="340.006" cy="112.405" r="8.587"/><circle cx="313.063" cy="79.043" r="8.587"/><circle cx="279.171" cy="53.094" r="8.587"/><circle cx="240.513" cy="37.472" r="8.587"/><circle cx="197.354" cy="31.647" r="8.587"/></g></svg>