<?xml version="1.0" encoding="UTF-8" standalone="no"?><!DOCTYPE svg PUBLIC "-//W3C//DTD SVG 1.1//EN" "http://www.w3.org/Graphics/SVG/1.1/DTD/svg11.dtd"><svg width="100%" height="100%" viewBox="0 0 1024 1024" version="1.1" xmlns="http://www.w3.org/2000/svg" xmlns:xlink="http://www.w3.org/1999/xlink" xml:space="preserve" xmlns:serif="http://www.serif.com/" style="fill-rule:evenodd;clip-rule:evenodd;stroke-linejoin:round;stroke-miterlimit:2;"><g><path d="M647.089,179.824c34.875,-42.405 58.394,-101.494 52.022,-160.236c-50.342,2.028 -111.284,33.658 -147.375,76.063c-32.383,37.539 -60.711,97.671 -53.064,155.253c56.134,4.403 113.427,-28.617 148.417,-71.08Zm272.911,560.245c-1.159,3.534 -21.666,71.197 -71.428,141.119c-42.985,60.48 -87.591,120.669 -157.861,121.944c-69.111,1.216 -91.298,-39.451 -170.258,-39.451c-78.959,0 -103.637,38.176 -169.041,40.667c-67.836,2.433 -119.51,-65.345 -162.9,-125.593c-88.576,-123.218 -156.297,-348.104 -65.346,-499.94c45.128,-75.368 125.825,-123.102 213.474,-124.377c66.62,-1.158 129.475,43.158 170.2,43.158c40.725,0 117.135,-53.354 197.485,-45.475c33.657,1.332 128.084,13.034 188.737,98.366c-4.924,2.954 -112.674,63.26 -111.516,188.795c1.448,150.214 136.948,200.15 138.454,200.787Z"/></g></svg>