<svg version="1.1" xmlns="http://www.w3.org/2000/svg" xmlns:xlink="http://www.w3.org/1999/xlink">
	<defs>
		<symbol id="icon" viewBox="0 0 30 30">
			<title>logo</title>
			<!-- path -->
			<path
				d="M18.878,5.829c0.936,-1.139 1.568,-2.725 1.397,-4.303c-1.352,0.055 -2.989,0.904 -3.958,2.043c-0.87,1.008 -1.63,2.623 -1.425,4.169c1.508,0.118 3.046,-0.768 3.986,-1.909Zm7.329,15.046c-0.031,0.095 -0.582,1.912 -1.918,3.79c-1.155,1.624 -2.352,3.24 -4.24,3.275c-1.856,0.032 -2.451,-1.06 -4.572,-1.06c-2.12,0 -2.783,1.025 -4.54,1.092c-1.821,0.066 -3.209,-1.755 -4.374,-3.373c-2.379,-3.309 -4.198,-9.348 -1.755,-13.426c1.212,-2.024 3.379,-3.306 5.733,-3.34c1.789,-0.031 3.477,1.159 4.57,1.159c1.094,0 3.146,-1.433 5.304,-1.221c0.904,0.036 3.44,0.35 5.069,2.641c-0.133,0.08 -3.026,1.699 -2.995,5.071c0.039,4.034 3.678,5.375 3.718,5.392Z" />
		</symbol>
		<symbol id="search" viewBox="0 0 30 30">
			<title>search</title>
			<!-- path -->
			<circle cx="11.538" cy="11.538" r="10.538" style="fill:none;" />
			<path d="M17.833,20l7.334,7.125l-7.334,-7.125Z" style="fill:none;" />
		</symbol>
		<symbol id="shop" viewBox="0 0 30 30">
			<title>shop</title>
			<!-- path -->
			<path
				d="M6.677,5.732l16.646,-0c3.004,-0 5.442,2.438 5.442,5.442l0,10.884c0,3.003 -2.438,5.442 -5.442,5.442l-16.646,-0c-3.004,-0 -5.442,-2.439 -5.442,-5.442l-0,-10.884c-0,-3.004 2.438,-5.442 5.442,-5.442Zm1.171,-0c1.277,-2.66 4.004,-4.482 7.152,-4.482c3.148,0 5.875,1.822 7.152,4.482l-14.304,-0Z"
				style="fill:none;" />
		</symbol>
	</defs>
</svg>